<svg width="512" height="512" viewBox="0 0 512 512" xmlns="http://www.w3.org/2000/svg"><title>Skills</title><mask id="satori_om-id"><rect x="0" y="0" width="512" height="512" fill="#fff"/></mask><rect x="0" y="0" width="512" height="512" fill="#080808"/><defs><clipPath id="satori_bc-id-0"><rect x="82" y="82" width="348" height="348"/></clipPath></defs><mask id="satori_om-id-0"><rect x="88.144" y="88.144" width="335.712" height="335.712" fill="#fff"/><path width="348" height="348" fill="none" stroke="#000" stroke-width="12.288" d="M82,82 A0,0 0 0 1 82,82 h348 a0,0 0 0 1 0,0 v348 a0,0 0 0 1 0,0 h-348 a0,0 0 0 1 0,0 v-348 A0,0 0 0 1 82,82"/></mask><path width="348" height="348" clip-path="url(#satori_bc-id-0)" fill="none" stroke="#3f3f3f" stroke-width="12.288" d="M82,82 A0,0 0 0 1 82,82 h348 a0,0 0 0 1 0,0 v348 a0,0 0 0 1 0,0 h-348 a0,0 0 0 1 0,0 v-348 A0,0 0 0 1 82,82"/><g  ><path fill="#fafafa" d="M200.3 319.0L200.3 319.0Q185.9 319.0 175.8 313.7Q165.8 308.5 158.6 299.6L158.6 299.6L171.3 287.7Q177.4 295.0 184.7 298.8Q192.0 302.6 201.3 302.6L201.3 302.6Q212.3 302.6 217.9 297.7Q223.4 292.8 223.4 284.4L223.4 284.4Q223.4 277.7 219.5 273.7Q215.6 269.8 205.6 267.8L205.6 267.8L195.4 266.0Q178.7 262.9 170.4 255.1Q162.0 247.2 162.0 233.4L162.0 233.4Q162.0 225.9 164.9 219.8Q167.7 213.6 172.9 209.4Q178.1 205.3 185.4 203.0Q192.8 200.7 202.0 200.7L202.0 200.7Q214.9 200.7 224.4 205.2Q233.9 209.7 240.6 218.2L240.6 218.2L227.7 229.7Q223.3 223.9 216.9 220.5Q210.5 217.1 201.0 217.1L201.0 217.1Q191.2 217.1 185.8 221.0Q180.3 224.9 180.3 232.5L180.3 232.5Q180.3 239.7 184.8 243.2Q189.2 246.7 198.5 248.5L198.5 248.5L208.7 250.6Q225.9 253.9 233.8 261.8Q241.8 269.7 241.8 283.4L241.8 283.4Q241.8 291.4 239.0 298.0Q236.2 304.5 230.9 309.2Q225.6 313.9 217.9 316.4Q210.2 319.0 200.3 319.0ZM333.0 317L298.3 263.6L282.6 281.6L282.6 317L264.1 317L264.1 202.6L282.6 202.6L282.6 260.6L283.2 260.6L299.6 239.8L330.4 202.6L352.0 202.6L311.3 250.8L355.3 317L333.0 317Z "/></g></svg>